# AST/ASF file generated using VICON BodyLanguage
# -----------------------------------------------
:version 1.10
:name VICON
:units
  mass 1.0
  length 0.45
  angle deg
:documentation
   .ast/.asf automatically generated from VICON data using
   VICON BodyBuilder and BodyLanguage model FoxedUp or BRILLIANT.MOD
:root
   order TX TY TZ RX RY RZ
   axis XYZ
   position 0 0 0  
   orientation 0 0 0 
:bonedata
  begin
     id 1 
     name lhipjoint
     direction 0.661853 -0.702389 0.261917 
     length 2.64193 
     axis 0 0 0  XYZ
  end
  begin
     id 2 
     name lfemur
     direction 0.34202 -0.939693 0  
     length 7.01722  
     axis 0 0 20  XYZ
    dof rx ry rz
    limits (-160.0 20.0)
           (-70.0 70.0)
           (-60.0 70.0)
  end
  begin
     id 3 
     name ltibia
     direction 0.34202 -0.939693 0   
     length 8.25008   
     axis 0 0 20   XYZ
    dof rx
    limits (-10.0 170.0)
  end
  begin
     id 4 
     name lfoot
     direction 0.0709916 -0.195048 0.978221   
     length 2.31941   
     axis -90 7.62852e-016 20   XYZ
    dof rx rz
    limits (-45.0 90.0)
           (-70.0 20.0)
  end
  begin
     id 5 
     name ltoes
     direction 1.53586e-011 -4.22017e-011 1   
     length 1.16486   
     axis -90 7.62852e-016 20   XYZ
    dof rx
    limits (-90.0 20.0)
  end
  begin
     id 6 
     name rhipjoint
     direction -0.638185 -0.721362 0.268992   
     length 2.57244  
     axis 0 0 0  XYZ 
  end
  begin
     id 7 
     name rfemur
     direction -0.34202 -0.939693 0   
     length 7.07017   
     axis 0 0 -20   XYZ
    dof rx ry rz
    limits (-160.0 20.0)
           (-70.0 70.0)
           (-70.0 60.0)
  end
  begin
     id 8 
     name rtibia
     direction -0.34202 -0.939693 0   
     length 8.20386   
     axis 0 0 -20   XYZ
    dof rx
    limits (-10.0 170.0)
 end
 begin
     id 9 
     name rfoot
     direction -0.0822429 -0.225961 0.970658   
     length 2.32215  
     axis -90 -7.62852e-016 -20   XYZ
    dof rx rz
    limits (-45.0 90.0)
           (-20.0 70.0)
  end
  begin
     id 10 
     name rtoes
     direction -1.53597e-011 -4.21689e-011 1   
     length 1.16333   
     axis -90 -7.62852e-016 -20   XYZ
    dof rx
    limits (-90.0 20.0)
  end
  begin
     id 11 
     name lowerback
     direction -0.0131557 0.998589 -0.0514484   
     length 2.14993   
     axis 0 0 0   XYZ
    dof rx ry rz
    limits (-20.0 45.0)
           (-30.0 30.0)
           (-30.0 30.0)
  end
  begin
     id 12 
     name upperback
     direction -0.000776481 0.999993 0.00352685   
     length 2.15301   
     axis 0 0 0   XYZ
    dof rx ry rz
    limits (-20.0 45.0)
           (-30.0 30.0)
           (-30.0 30.0)
  end
  begin
     id 13 
     name thorax
     direction 0.00438186 0.999609 0.0276143   
     length 2.15424   
     axis 0 0 0   XYZ
    dof rx ry rz
    limits (-20.0 45.0)
           (-30.0 30.0)
           (-30.0 30.0)
  end
  begin
     id 14 
     name lowerneck
     direction -0.0488006 0.998094 0.0377807   
     length 1.90481   
     axis 0 0 0   XYZ
    dof rx ry rz
    limits (-20.0 45.0)
           (-30.0 30.0)
           (-30.0 30.0)
  end
  begin
     id 15 
     name upperneck
     direction 0.0443769 0.990702 -0.12861   
     length 1.91305   
     axis 0 0 0   XYZ
    dof rx ry rz
    limits (-20.0 45.0)
           (-30.0 30.0)
           (-30.0 30.0)
  end
  begin
     id 16
     name head
     direction 0.0165599 0.998647 -0.0492982  
     length 1.92369  
     axis 0 0 0   XYZ
    dof rx ry rz
    limits (-20.0 45.0)
           (-30.0 30.0)
           (-30.0 30.0)
  end
  begin
     id 17 
     name lclavicle
     direction 0.911936 0.410197 -0.0105506  
     length 3.52622  
     axis 0 0 0   XYZ
    dof ry rz
    limits (-20.0 10.0)
           (0.0 20.0)
  end
  begin
     id 18 
     name lhumerus
     direction 1 -4.48974e-011 -2.48591e-028   
     length 5.47651   
     axis 180 -30 -90   XYZ
    dof rx ry rz
    limits (-60.0 90.0)
           (-90.0 90.0)
           (-90.0 90.0)
  end
  begin
     id 19
     name lradius
     direction 1 -4.48938e-011 -4.40099e-027   
     length 3.09058   
     axis 180 -30 -90   XYZ
    dof rx
    limits (-10.0 170.0)
  end
  begin
     id 20
     name lwrist
     direction 1 -4.49042e-011 -2.99852e-027   
     length 1.54529   
     axis 1.95339e-015 90 90   XYZ
    dof ry
    limits (-180.0 0.0)
 end
  begin
     id 21 
     name lhand
     direction 1 -4.48815e-011 -5.98193e-027   
     length 0.771611   
     axis 3.82337e-015 90 90   XYZ
    dof rx rz
    limits (-90.0 90.0)
           (-45.0 45.0)
  end
  begin
     id 22 
     name lfingers
     direction 1 -4.49034e-011 -1.1993e-026   
     length 0.622093   
     axis 7.64668e-015 90 90   XYZ
    dof rx
    limits (0.0 90.0)
  end
  begin
     id 23
     name lthumb
     direction 0.707107 -6.34867e-011 0.707107   
     length 0.893204   
     axis -90 45 -1.62303e-014   XYZ
    dof rx rz
    limits (-45.0 45.0)
           (-45.0 45.0)
  end
  begin
     id 24 
     name rclavicle
     direction -0.93442 0.355634 -0.0195692   
     length 3.62463  
     axis 0 0 0   XYZ 
    dof ry rz
    limits (-10.0 20.0)
           (-20.0 0.0)
  end
  begin
     id 25 
     name rhumerus
     direction -1 -4.48957e-011 -1.19147e-027  
     length 5.14182   
     axis 180 30 90   XYZ
    dof rx ry rz
    limits (-90.0 60.0)
           (-90.0 90.0)
           (-90.0 90.0)
  end
  begin
     id 26 
     name rradius
     direction -1 -4.48952e-011 -3.81062e-027   
     length 3.35565   
     axis 180 30 90   XYZ
    dof rx
    limits (-10.0 170.0)
  end
  begin
     id 27 
     name rwrist
     direction -1 -4.48973e-011 -2.99621e-027   
     length 1.67782   
     axis 1.95339e-015 -90 -90   XYZ
    dof ry
    limits (-180.0 0.0)
  end
  begin
     id 28
     name rhand
     direction -1 -4.48895e-011 -5.98727e-027   
     length 0.801042   
     axis 3.82337e-015 -90 -90   XYZ
    dof rx rz
    limits (-90.0 90.0)
           (-45.0 45.0)
  end
  begin
     id 29
     name rfingers
     direction -1 -4.49065e-011 -1.19972e-026   
     length 0.645821   
     axis 7.64668e-015 -90 -90   XYZ
    dof rx
    limits (0.0 90.0)
  end
  begin
     id 30
     name rthumb
     direction -0.707107 -6.34957e-011 0.707107   
     length 0.927273   
     axis -90 -45 1.62303e-014   XYZ
    dof rx rz
    limits (-45.0 45.0)
           (-45.0 45.0)
  end
:hierarchy
  begin
    root lhipjoint rhipjoint lowerback
    lhipjoint lfemur
    lfemur ltibia
    ltibia lfoot
    lfoot ltoes
    rhipjoint rfemur
    rfemur rtibia
    rtibia rfoot
    rfoot rtoes
    lowerback upperback
    upperback thorax
    thorax lowerneck lclavicle rclavicle
    lowerneck upperneck
    upperneck head
    lclavicle lhumerus
    lhumerus lradius
    lradius lwrist
    lwrist lhand lthumb
    lhand lfingers
    rclavicle rhumerus
    rhumerus rradius
    rradius rwrist
    rwrist rhand rthumb
    rhand rfingers
  end

#!OML:ASF E:\Style4\Style4.ASF
:FULLY-SPECIFIED
:DEGREES
277
root 1.69834 17.306 -1.8896 4.60608 -38.9903 3.23565
lowerback 15.3356 0.58147 0.657354
upperback 10.1583 0.560246 3.21867
thorax 2.1578 0.095018 2.93106
lowerneck -2.17704 2.57841 -3.76205
upperneck -10.6729 2.38784 -10.9158
head -2.99365 1.61656 -2.99683
rclavicle -5.24792e-014 -1.11319e-014
rhumerus 61.09 13.1301 -28.765
rradius 57.0926
rwrist -91.2356
rhand -9.55933 13.5326
rfingers 7.12502
rthumb 16.408 -15.7935
lclavicle -5.24792e-014 -1.11319e-014
lhumerus 61.6799 -8.55785 8.71449
lradius 61.7079
lwrist 78.7847
lhand 11.4494 26.2067
lfingers 7.12502
lthumb 36.4998 52.3989
rfemur -37.9406 15.276 9.00733
rtibia 38.1401
rfoot -11.9419 11.3925
rtoes -10.4748
lfemur -28.6713 21.6085 -26.8419
ltibia 45.0695
lfoot -27.0875 14.5192
ltoes -8.0367
278
root 1.70886 17.3035 -1.87659 4.58982 -39.5636 3.2757
lowerback 15.3279 0.496978 0.442945
upperback 10.1619 0.421057 3.10712
thorax 2.17084 0.0169995 2.95288
lowerneck -2.05687 2.79957 -3.72696
upperneck -10.7815 2.67258 -10.8685
head -3.04049 1.76424 -2.99751
rclavicle 2.46493e-014 -3.57812e-014
rhumerus 60.9493 13.1158 -28.4459
rradius 57.2751
rwrist -91.299
rhand -9.49094 13.4749
rfingers 7.12502
rthumb 16.4738 -15.8456
lclavicle 2.46493e-014 -3.57812e-014
lhumerus 61.6842 -8.7365 8.90347
lradius 61.8627
lwrist 78.951
lhand 11.175 26.1336
lfingers 7.12502
lthumb 36.2399 52.3908
rfemur -38.0576 15.5746 8.92172
rtibia 38.0463
rfoot -11.8625 11.619
rtoes -10.6497
lfemur -28.7317 22.0023 -26.9555
ltibia 45.2106
lfoot -27.2904 14.6242
ltoes -8.03069
279
root 1.71747 17.2988 -1.86578 4.6462 -40.1175 3.21274
lowerback 15.3286 0.40677 0.302299
upperback 10.1753 0.282324 3.0027
thorax 2.19108 -0.0578876 2.9405
lowerneck -2.04614 3.02072 -3.674
upperneck -10.7933 2.97555 -10.831
head -3.03251 1.91301 -2.99886
rclavicle -4.53229e-014 -7.15625e-015
rhumerus 60.7737 13.0271 -28.1789
rradius 57.5483
rwrist -91.3357
rhand -9.66777 13.3244
rfingers 7.12502
rthumb 16.3036 -16.0102
lclavicle -4.53229e-014 -7.15625e-015
lhumerus 61.7296 -8.90095 8.96451
lradius 62.0337
lwrist 79.1556
lhand 10.7674 25.5853
lfingers 7.12502
lthumb 35.8538 51.9376
rfemur -38.1914 15.865 8.93836
rtibia 37.9528
rfoot -11.7931 11.8254
rtoes -10.8084
lfemur -28.8222 22.4148 -26.9823
ltibia 45.3488
lfoot -27.46 14.7887
ltoes -8.13336
280
root 1.72583 17.2934 -1.85482 4.71371 -40.6776 3.07447
lowerback 15.3361 0.334185 0.202295
upperback 10.2228 0.168745 2.93203
thorax 2.24373 -0.120572 2.9376
lowerneck -2.00875 3.21572 -3.61008
upperneck -10.8621 3.22962 -10.848
head -3.05074 2.04159 -3.02323
rclavicle -2.78299e-014 5.08889e-014
rhumerus 60.639 12.8816 -27.7911
rradius 57.7683
rwrist -91.377
rhand -9.76454 13.1693
rfingers 7.12502
rthumb 16.2104 -16.173
lclavicle -2.78299e-014 5.08889e-014
lhumerus 61.8641 -9.0325 9.12533
lradius 62.1085
lwrist 79.2594
lhand 10.2023 25.2669
lfingers 7.12502
lthumb 35.3182 51.748
rfemur -38.2963 16.1879 9.01275
rtibia 37.8787
rfoot -11.5805 12.0707
rtoes -10.2443
lfemur -28.8617 22.8504 -26.9205
ltibia 45.4928
lfoot -27.6731 14.8345
ltoes -7.75672
281
root 1.73296 17.2896 -1.84217 4.77118 -41.2523 2.90247
lowerback 15.383 0.260689 0.107514
upperback 10.2716 0.0545523 2.87178
thorax 2.27734 -0.183939 2.94291
lowerneck -1.94122 3.42764 -3.52618
upperneck -10.9911 3.49731 -10.8799
head -3.09406 2.18005 -3.05983
rclavicle 1.66184e-013 -7.71285e-014
rhumerus 60.519 12.7987 -27.4215
rradius 57.9151
rwrist -91.4183
rhand -9.68917 13.2656
rfingers 7.12502
rthumb 16.2829 -16.0707
lclavicle 1.66184e-013 -7.71285e-014
lhumerus 61.9621 -9.14679 9.33208
lradius 62.1563
lwrist 79.219
lhand 10.0896 25.5095
lfingers 7.12502
lthumb 35.2113 52.0159
rfemur -38.3541 16.541 9.1232
rtibia 37.8263
rfoot -11.3983 12.2275
rtoes -9.82864
lfemur -28.8589 23.2765 -26.8104
ltibia 45.6465
lfoot -27.7444 14.9807
ltoes -7.97343
282
root 1.74061 17.2865 -1.8301 4.87186 -41.7876 2.72323
lowerback 15.4448 0.171367 0.0360334
upperback 10.2786 -0.0745397 2.80687
thorax 2.25902 -0.252102 2.93208
lowerneck -1.93025 3.65374 -3.44538
upperneck -11.0376 3.80193 -10.8674
head -3.09681 2.33068 -3.07616
rclavicle 3.89618e-014 -4.77083e-014
rhumerus 60.3565 12.7811 -27.1302
rradius 58.0269
rwrist -91.3656
rhand -9.46901 13.4553
rfingers 7.12502
rthumb 16.4949 -15.8635
lclavicle 3.89618e-014 -4.77083e-014
lhumerus 62.0505 -9.30882 9.55114
lradius 62.1757
lwrist 79.1548
lhand 10.6562 25.6739
lfingers 7.12502
lthumb 35.7484 52.0519
rfemur -38.4435 16.8302 9.23899
rtibia 37.7866
rfoot -11.3289 12.3871
rtoes -9.87398
lfemur -28.9069 23.6268 -26.702
ltibia 45.8292
lfoot -27.9043 15.0252
ltoes -7.83837
283
root 1.74822 17.2827 -1.81792 4.92726 -42.3267 2.60831
lowerback 15.493 0.0763161 -0.0473767
upperback 10.2791 -0.211801 2.69288
thorax 2.24072 -0.322857 2.87732
lowerneck -1.89436 3.84774 -3.42544
upperneck -11.0583 4.0743 -10.732
head -3.09952 2.46375 -3.03844
rclavicle -4.85035e-014 4.13472e-014
rhumerus 60.1895 12.7479 -26.8558
rradius 58.1639
rwrist -91.3476
rhand -9.31542 13.4185
rfingers 7.12502
rthumb 16.6428 -15.888
lclavicle -4.85035e-014 4.13472e-014
lhumerus 62.1564 -9.49886 9.73165
lradius 62.2123
lwrist 79.2319
lhand 10.911 25.6782
lfingers 7.12502
lthumb 35.9899 51.9972
rfemur -38.5362 17.0737 9.31774
rtibia 37.7521
rfoot -11.242 12.6526
rtoes -9.99977
lfemur -28.9628 24.0514 -26.6617
ltibia 46.0316
lfoot -28.0562 15.0898
ltoes -7.96686
